<svg xmlns="http://www.w3.org/2000/svg" viewBox="0 0 460.91 229.84"><path d="M118.93 157.63c-25.9 24.3-62.1 18.7-83.8-6.9-9.8-11.5-13.1-28.5-13.7-43.2a62.62 62.62 0 0 1 3.8-22.7c2.9-8.8 12.9-12.1 21.2-14.7 36.5-11.5 73.2 7.6 101.7 28.9 32.1 24.1 59.4 52.8 95.1 72.1 33.5 18.1 72.9 29.8 111.2 26.7 34.9-2.8 65.5-23.5 86.3-50.9 18.7-24.7 27.3-53.7 13.1-82.8-14.2-28.9-49-29.3-74.3-16-7.6 4-13.9 11.1-19 17.9-3 4-1.3 5.4 2.1 1.8 24.8-26.3 64.8 6.3 72.2 32.1 4 14 2.7 33.7-5.8 45.8-8.6 12.3-32.3 16.8-45.8 18.7-39.8 5.6-82-9.6-116.6-28.2-35.3-19-63-48.7-96-71.2-29.3-20-64.4-32.7-99.9-24.2-29.1 7-55.6 32.4-66 60.1-9.8 26-5 57.6 20.2 73.1 21.5 13.3 57.7 13.7 78.7-1.2a83.06 83.06 0 0 0 15.5-14.1c.4-.6 1.1-2.3-.2-1.1z"/><path d="M70.63 99.33c26.6-10.2 55.2 23 72.9 38.8 21.7 19.4 42.3 39.7 65.5 57.2 42.8 32.3 98.1 47.7 147.4 20.5 1.2-.7 2.7-3.9 3.1-4.1-50.5 25.3-107.2-2.9-148.2-33.3-23.4-17.3-44.6-37.6-67.4-55.8-19.6-15.7-45.9-35.7-72-24.9-.6.3-1.2 1.6-1.3 1.6zM351 132.73c-26.7 10-55-23.5-72.5-39.5-21.5-19.6-41.9-40.1-65-57.8-42.5-32.7-97.7-48.7-147.2-21.9-1.2.7-2.7 3.9-3.1 4 50.7-24.8 107.1 3.9 147.9 34.7 23.3 17.6 44.3 38 66.9 56.4 19.5 15.8 45.5 36.1 71.8 25.6.5-.2 1.1-1.4 1.2-1.5z"/></svg>